# xmcd
#
# Track frame offsets:
#	150
#	15844
#	31471
#	46324
#	67169
#	81980
#	100050
#	118729
#	137459
#	153316
#	171209
#	186425
#	204448
#	222283
#	236666
#	251641
#	270125
#	287136
#	304906
#	318727
#	336602
#
# Disc length: 4719 seconds
#
# Revision: 1
# Processed by: cddbd v1.5.2PL0 Copyright (c) Steve Scherf et al.
# Submitted via: audiograbber 1.83.01
#
DISCID=36126d15
DTITLE=Various Artist - Bravo Hits 34 - CD1
DYEAR=2001
DGENRE=Pop
TTITLE0=Dante Thomas - Miss California (Album Version)
TTITLE1=Destiny?s Child - Bootylicious (Album Version)
TTITLE2=Wyclef Jean - Perfect Gentleman (Radio Edit)
TTITLE3=Brothers Keepers - Adriano (Letzte Warnung) (Radio Mix I)
TTITLE4=R. Kelly - Fiesta (Album Version)
TTITLE5=Lil' Kim feat. Phil Collins - In the Air Tonite (Boogieman Radio Versio
TTITLE5=n)
TTITLE6=Sisqo - Dance For Me (Radio Clean Edit)
TTITLE7=M.O.P. feat. Funk Flex - Ante Up (Robbin Hoodz Theory) (Explicit)
TTITLE8=Missy ''Misdemeanor'' Elliott - Get Ur Freak On (Edit)
TTITLE9=Foxy Brown - Oh Yeah (Radio Clean Edit)
TTITLE10=Lil' Bow Wow - Bow Wow (That's My Name) (Radio Edit)
TTITLE11=Seeed feat. Black Kappa - Dickes B (Single Version)
TTITLE12=Sarah Connor feat. TQ - Let's Get Back to Bed-Boy! (Radio Video (Klima
TTITLE12=x))
TTITLE13=Jessica Simpson - Irresistible (Album Version)
TTITLE14=Valentin Stilu - Das Spiel (Radio Version)
TTITLE15=Sabrina Setlur - Keine ist (Director's Cut)
TTITLE16=Sofaplanet - Nie wieder (Album Version)
TTITLE17=Melanie Thornton - I Wish It Was Love (Album Version)
TTITLE18=Juliette - Unstoppable (Radio Edit)
TTITLE19=°NSYNC - Pop (Album Version)
TTITLE20=S Club 7 - Don't Stop Movin' (Single Version)
EXTD=
EXTT0=
EXTT1=
EXTT2=
EXTT3=
EXTT4=
EXTT5=
EXTT6=
EXTT7=
EXTT8=
EXTT9=
EXTT10=
EXTT11=
EXTT12=
EXTT13=
EXTT14=
EXTT15=
EXTT16=
EXTT17=
EXTT18=
EXTT19=
EXTT20=
PLAYORDER=
